<svg width="144" height="144" viewBox="0 0 144 144" fill="none" xmlns="http://www.w3.org/2000/svg">
<rect width="144" height="144" fill="#A4E636"/>
<path d="M28.6502 99.5111V37.1256H46.401V43.951H37.1941V92.7103H46.401V99.5111H28.6502Z" fill="#111113"/>
<path d="M114.702 37.1256V99.5111H96.9514V92.7103H106.158V43.951H96.9514V37.1256H114.702Z" fill="#111113"/>
<path d="M68.7387 83.1707L69.3034 73.2273L60.9559 78.7023L57.9606 73.4974L66.8728 69.029L57.9606 64.5606L60.9559 59.3557L69.3034 64.8307L68.7387 54.8873H74.7048L74.1646 64.8307L82.5121 59.3557L85.5074 64.5606L76.5707 69.029L85.5074 73.4974L82.5121 78.7023L74.1646 73.2273L74.7048 83.1707H68.7387Z" fill="#111113"/>
</svg>
