<svg width="124" height="25" viewBox="0 0 124 25" fill="none" xmlns="http://www.w3.org/2000/svg">
<path d="M0.673232 8.05889V6.18947H10.4952V8.05889H6.69024V18.5H4.47819V8.05889H0.673232ZM13.6931 18.6863C13.108 18.6863 12.581 18.5822 12.1122 18.3738C11.6473 18.1614 11.2786 17.8488 11.0061 17.4361C10.7376 17.0233 10.6034 16.5144 10.6034 15.9093C10.6034 15.3883 10.6996 14.9575 10.8919 14.6169C11.0843 14.2763 11.3468 14.0038 11.6794 13.7994C12.012 13.595 12.3867 13.4407 12.8034 13.3366C13.2242 13.2284 13.659 13.1502 14.1078 13.1021C14.6488 13.046 15.0876 12.9959 15.4242 12.9518C15.7608 12.9038 16.0053 12.8316 16.1576 12.7355C16.3139 12.6353 16.392 12.481 16.392 12.2726V12.2365C16.392 11.7837 16.2577 11.4331 15.9893 11.1846C15.7208 10.9362 15.3341 10.8119 14.8291 10.8119C14.2962 10.8119 13.8734 10.9281 13.5608 11.1606C13.2522 11.393 13.0439 11.6675 12.9357 11.9841L10.904 11.6955C11.0642 11.1345 11.3287 10.6657 11.6974 10.289C12.0661 9.90828 12.5169 9.62376 13.0499 9.43541C13.5829 9.24306 14.1719 9.14689 14.8171 9.14689C15.2619 9.14689 15.7047 9.19898 16.1455 9.30317C16.5864 9.40736 16.9891 9.57968 17.3538 9.82012C17.7184 10.0565 18.011 10.3791 18.2314 10.7879C18.4558 11.1966 18.568 11.7076 18.568 12.3207V18.5H16.4761V17.2317H16.404C16.2718 17.4881 16.0854 17.7286 15.845 17.953C15.6086 18.1734 15.31 18.3517 14.9494 18.488C14.5927 18.6202 14.1739 18.6863 13.6931 18.6863ZM14.2581 17.0874C14.6949 17.0874 15.0736 17.0013 15.3942 16.8289C15.7148 16.6526 15.9612 16.4202 16.1335 16.1317C16.3098 15.8431 16.398 15.5286 16.398 15.1879V14.0999C16.3299 14.1561 16.2137 14.2081 16.0494 14.2562C15.8891 14.3043 15.7087 14.3464 15.5084 14.3825C15.308 14.4185 15.1096 14.4506 14.9133 14.4786C14.7169 14.5067 14.5466 14.5307 14.4024 14.5508C14.0778 14.5949 13.7872 14.667 13.5308 14.7672C13.2743 14.8674 13.0719 15.0076 12.9236 15.1879C12.7754 15.3643 12.7012 15.5927 12.7012 15.8732C12.7012 16.2739 12.8475 16.5765 13.14 16.7809C13.4326 16.9852 13.8053 17.0874 14.2581 17.0874ZM20.8522 18.5V6.18947H23.0281V10.7939H23.1183C23.2305 10.5695 23.3888 10.3311 23.5932 10.0786C23.7975 9.82212 24.0741 9.60372 24.4227 9.42339C24.7713 9.23905 25.2161 9.14689 25.7571 9.14689C26.4704 9.14689 27.1136 9.32922 27.6867 9.69389C28.2637 10.0545 28.7206 10.5895 29.0572 11.2988C29.3978 12.0041 29.5681 12.8697 29.5681 13.8956C29.5681 14.9094 29.4018 15.771 29.0692 16.4803C28.7366 17.1896 28.2838 17.7306 27.7107 18.1033C27.1377 18.476 26.4885 18.6623 25.7631 18.6623C25.2342 18.6623 24.7954 18.5741 24.4467 18.3978C24.0981 18.2215 23.8176 18.0091 23.6052 17.7606C23.3968 17.5082 23.2345 17.2697 23.1183 17.0453H22.9921V18.5H20.8522ZM22.9861 13.8836C22.9861 14.4806 23.0702 15.0036 23.2385 15.4524C23.4108 15.9012 23.6573 16.2519 23.9779 16.5043C24.3025 16.7528 24.6952 16.877 25.156 16.877C25.6369 16.877 26.0396 16.7488 26.3642 16.4923C26.6888 16.2318 26.9333 15.8772 27.0976 15.4284C27.2659 14.9756 27.35 14.4606 27.35 13.8836C27.35 13.3105 27.2679 12.8016 27.1036 12.3568C26.9393 11.9119 26.6948 11.5633 26.3703 11.3108C26.0457 11.0584 25.6409 10.9322 25.156 10.9322C24.6912 10.9322 24.2965 11.0544 23.9719 11.2988C23.6473 11.5433 23.4008 11.8859 23.2325 12.3267C23.0682 12.7675 22.9861 13.2865 22.9861 13.8836ZM33.594 6.18947V18.5H31.418V6.18947H33.594ZM39.919 18.6803C38.9934 18.6803 38.1939 18.488 37.5207 18.1033C36.8514 17.7146 36.3365 17.1656 35.9758 16.4563C35.6152 15.743 35.4348 14.9034 35.4348 13.9377C35.4348 12.9879 35.6152 12.1544 35.9758 11.4371C36.3405 10.7158 36.8494 10.1547 37.5026 9.754C38.1558 9.34926 38.9232 9.14689 39.8048 9.14689C40.3739 9.14689 40.9109 9.23905 41.4158 9.42339C41.9247 9.60372 42.3735 9.88423 42.7622 10.2649C43.155 10.6456 43.4635 11.1305 43.6879 11.7196C43.9124 12.3047 44.0246 13.0019 44.0246 13.8114V14.4786H36.4567V13.012H41.9387C41.9347 12.5952 41.8446 12.2245 41.6682 11.8999C41.4919 11.5713 41.2455 11.3128 40.9289 11.1245C40.6163 10.9362 40.2517 10.842 39.8349 10.842C39.3901 10.842 38.9994 10.9502 38.6627 11.1666C38.3261 11.379 38.0637 11.6595 37.8753 12.0081C37.691 12.3528 37.5968 12.7314 37.5928 13.1442V14.4245C37.5928 14.9615 37.691 15.4224 37.8873 15.8071C38.0837 16.1878 38.3582 16.4803 38.7108 16.6847C39.0635 16.885 39.4762 16.9852 39.9491 16.9852C40.2657 16.9852 40.5522 16.9411 40.8087 16.853C41.0651 16.7608 41.2875 16.6266 41.4759 16.4502C41.6642 16.2739 41.8065 16.0555 41.9027 15.7951L43.9344 16.0235C43.8062 16.5605 43.5617 17.0293 43.2011 17.43C42.8444 17.8268 42.3876 18.1353 41.8305 18.3557C41.2735 18.5721 40.6364 18.6803 39.919 18.6803Z" fill="white"/>
<path d="M81.2142 6.18947H83.9432L87.5979 15.1098H87.7422L91.3968 6.18947H94.1258V18.5H91.9859V10.0425H91.8717L88.4695 18.4639H86.8706L83.4683 10.0245H83.3541V18.5H81.2142V6.18947ZM99.115 18.6863C98.5299 18.6863 98.0029 18.5822 97.5341 18.3738C97.0692 18.1614 96.7005 17.8488 96.428 17.4361C96.1596 17.0233 96.0253 16.5144 96.0253 15.9093C96.0253 15.3883 96.1215 14.9575 96.3138 14.6169C96.5062 14.2763 96.7687 14.0038 97.1013 13.7994C97.4339 13.595 97.8086 13.4407 98.2253 13.3366C98.6461 13.2284 99.0809 13.1502 99.5297 13.1021C100.071 13.046 100.51 12.9959 100.846 12.9518C101.183 12.9038 101.427 12.8316 101.579 12.7355C101.736 12.6353 101.814 12.481 101.814 12.2726V12.2365C101.814 11.7837 101.68 11.4331 101.411 11.1846C101.143 10.9362 100.756 10.8119 100.251 10.8119C99.7181 10.8119 99.2953 10.9281 98.9827 11.1606C98.6742 11.393 98.4658 11.6675 98.3576 11.9841L96.3259 11.6955C96.4862 11.1345 96.7506 10.6657 97.1193 10.289C97.488 9.90828 97.9388 9.62376 98.4718 9.43541C99.0048 9.24306 99.5938 9.14689 100.239 9.14689C100.684 9.14689 101.127 9.19898 101.567 9.30317C102.008 9.40736 102.411 9.57968 102.776 9.82012C103.14 10.0565 103.433 10.3791 103.653 10.7879C103.878 11.1966 103.99 11.7076 103.99 12.3207V18.5H101.898V17.2317H101.826C101.694 17.4881 101.507 17.7286 101.267 17.953C101.03 18.1734 100.732 18.3517 100.371 18.488C100.015 18.6202 99.5958 18.6863 99.115 18.6863ZM99.68 17.0874C100.117 17.0874 100.495 17.0013 100.816 16.8289C101.137 16.6526 101.383 16.4202 101.555 16.1317C101.732 15.8431 101.82 15.5286 101.82 15.1879V14.0999C101.752 14.1561 101.636 14.2081 101.471 14.2562C101.311 14.3043 101.131 14.3464 100.93 14.3825C100.73 14.4185 100.532 14.4506 100.335 14.4786C100.139 14.5067 99.9685 14.5307 99.8243 14.5508C99.4997 14.5949 99.2091 14.667 98.9527 14.7672C98.6962 14.8674 98.4938 15.0076 98.3456 15.1879C98.1973 15.3643 98.1231 15.5927 98.1231 15.8732C98.1231 16.2739 98.2694 16.5765 98.562 16.7809C98.8545 16.9852 99.2272 17.0874 99.68 17.0874ZM113.475 11.7076L111.492 11.924C111.436 11.7236 111.337 11.5353 111.197 11.3589C111.061 11.1826 110.876 11.0404 110.644 10.9322C110.412 10.824 110.127 10.7699 109.79 10.7699C109.338 10.7699 108.957 10.868 108.648 11.0644C108.344 11.2608 108.194 11.5152 108.198 11.8278C108.194 12.0963 108.292 12.3147 108.492 12.483C108.696 12.6513 109.033 12.7896 109.502 12.8977L111.077 13.2344C111.95 13.4227 112.6 13.7213 113.024 14.13C113.453 14.5388 113.67 15.0737 113.674 15.7349C113.67 16.316 113.499 16.8289 113.163 17.2738C112.83 17.7146 112.367 18.0592 111.774 18.3076C111.181 18.5561 110.5 18.6803 109.73 18.6803C108.6 18.6803 107.691 18.4439 107.001 17.971C106.312 17.4942 105.901 16.8309 105.769 15.9814L107.891 15.777C107.987 16.1938 108.192 16.5084 108.504 16.7207C108.817 16.9331 109.223 17.0393 109.724 17.0393C110.241 17.0393 110.656 16.9331 110.969 16.7207C111.285 16.5084 111.444 16.2459 111.444 15.9333C111.444 15.6688 111.341 15.4504 111.137 15.2781C110.937 15.1058 110.624 14.9735 110.199 14.8814L108.624 14.5508C107.739 14.3664 107.084 14.0559 106.659 13.6191C106.234 13.1783 106.024 12.6212 106.028 11.948C106.024 11.379 106.178 10.8861 106.49 10.4693C106.807 10.0485 107.246 9.72394 107.807 9.49552C108.372 9.2631 109.023 9.14689 109.76 9.14689C110.842 9.14689 111.694 9.37731 112.315 9.83815C112.94 10.299 113.327 10.9221 113.475 11.7076ZM117.452 15.6027L117.446 12.9759H117.794L121.112 9.26711H123.655L119.573 13.8114H119.123L117.452 15.6027ZM115.468 18.5V6.18947H117.644V18.5H115.468ZM121.262 18.5L118.257 14.2983L119.724 12.7655L123.865 18.5H121.262Z" fill="white"/>
<rect x="50" width="25" height="25" rx="4" fill="#A4E636"/>
<path d="M54.0245 17.9788V6.08366H57.4091V7.38506H55.6536V16.6821H57.4091V17.9788H54.0245Z" fill="#111113"/>
<path d="M70.4322 6.08366V17.9788H67.0476V16.6821H68.8031V7.38506H67.0476V6.08366H70.4322Z" fill="#111113"/>
<path d="M61.6682 14.8631L61.7759 12.9672L60.1843 14.0112L59.6132 13.0187L61.3125 12.1667L59.6132 11.3147L60.1843 10.3223L61.7759 11.3662L61.6682 9.47032H62.8058L62.7028 11.3662L64.2944 10.3223L64.8656 11.3147L63.1616 12.1667L64.8656 13.0187L64.2944 14.0112L62.7028 12.9672L62.8058 14.8631H61.6682Z" fill="#111113"/>
</svg>
